<?xml version="1.0" encoding="UTF-8"?>
<!-- Generator: Adobe Illustrator 19.2.0, SVG Export Plug-In . SVG Version: 6.00 Build 0)  -->
<svg version="1.1" id="Layer_1" xmlns="http://www.w3.org/2000/svg" xmlns:xlink="http://www.w3.org/1999/xlink" x="0px" y="0px" viewBox="0 0 154 132" style="enable-background:new 0 0 154 132;" xml:space="preserve">
<style type="text/css">
	.st0{fill:#FFFFFF;}
	.st1{fill:#37B3DB;}
	.st2{fill:#0B0B0A;}
</style>
<g>
	<path id="path-1" d="M136.6,77.5c5.8-7.3,13-17.8,13-26.1c0-7.7-2.1-14.8-5.8-20.9c-3.2-5.3-7.9-9.8-13.8-13.7   c-11.4-7.5-25.4-10.6-35-12c-3.8-0.5-7.7-0.8-11.8-0.8c-11,0-22.4,1.9-32.8,5.6c-11.1,3.9-20.7,9.6-27.7,16.5   C15.5,33.3,9,44.7,6.1,55.2c-1.8,6.5-2.2,12.6-1.4,18.1c1,6.5,3.8,12.2,8.3,16.7c8.1,8.2,19.9,9.3,29.3,9.3c4.6,0,9.2-0.3,13.7-0.6   c4.3-0.3,8.4-0.5,12.2-0.5c2.9,0,5.3,0.1,7.4,0.4c13.2,1.9,42.5,21.2,52.7,28.4c0.7,0.5,1.5,0.7,2.3,0.7c1,0,2-0.4,2.8-1.2   c1.4-1.4,1.5-3.5,0.4-5.1c-2.5-3.4-5.4-8.6-8.3-13.5c-2.4-4.1-4.8-8.3-7.1-11.9C124.3,91.4,131.1,84.4,136.6,77.5"/>
	<path id="path-1_1_" class="st0" d="M136.6,77.5c5.8-7.3,13-17.8,13-26.1c0-7.7-2.1-14.8-5.8-20.9c-3.2-5.3-7.9-9.8-13.8-13.7   c-11.4-7.5-25.4-10.6-35-12c-3.8-0.5-7.7-0.8-11.8-0.8c-11,0-22.4,1.9-32.8,5.6c-11.1,3.9-20.7,9.6-27.7,16.5   C15.5,33.3,9,44.7,6.1,55.2c-1.8,6.5-2.2,12.6-1.4,18.1c1,6.5,3.8,12.2,8.3,16.7c8.1,8.2,19.9,9.3,29.3,9.3c4.6,0,9.2-0.3,13.7-0.6   c4.3-0.3,8.4-0.5,12.2-0.5c2.9,0,5.3,0.1,7.4,0.4c13.2,1.9,42.5,21.2,52.7,28.4c0.7,0.5,1.5,0.7,2.3,0.7c1,0,2-0.4,2.8-1.2   c1.4-1.4,1.5-3.5,0.4-5.1c-2.5-3.4-5.4-8.6-8.3-13.5c-2.4-4.1-4.8-8.3-7.1-11.9C124.3,91.4,131.1,84.4,136.6,77.5"/>
	<path id="Fill-3" class="st1" d="M121.5,112.3l0.1,0.2l0.4,0.7c1,0.4,1.9,1.9,3.1,3.9c0.1-0.1,0.2-0.4,0.7,0.2   c1.8,3.2,1.1,1.5,2.9,3.4c-0.5-0.7-1.1-1.5-1.2-1.9l3.1,4c-0.1-0.8-0.2-1.4,0.6-0.9c0.3-0.8,1.9,0,2.9,0.1   c-0.5-0.8-0.8-1.4-0.9-1.7c0.3-0.1,0.9,0.5,1.6,1.4c0-0.1,0-0.2,0-0.4c0,0.2,0,0.3,0,0.4c0.4,0.5,0.9,1.2,1.3,1.8   c-0.2-0.4-0.3-0.8-0.1-0.7l-1.8-2.4c0-0.1,0.1-0.1,0.2,0l-0.6-0.5l0.2,0.6c0,0.2-0.3,0-0.6-0.3c-0.5-0.6-0.5-0.9-0.7-1.2l-1.2-1.1   c-0.8-0.2,2.2,3.6,0.3,1.8l-0.4-0.7c-0.8-0.9-1.8-2.2-2.5-2.7c-0.2-1.3-2.4-2.5-1.8-3.2c-1.2-2-2.8-4.2-4.2-6.5   c-0.4-0.6-0.7-1.1-1.1-1.7c-0.4-0.6-0.8-1.3-1.2-2c-0.7-1.4-1.3-2.7-1.7-3.9c-1.1-0.8-2.3-0.7-4.2-3.3c-0.1-0.5-0.3-1.2-0.1-0.9   l-0.3-0.4l-0.1-0.2l0-0.2l0-0.6l0.1-0.1l-0.2,0.1c-0.5,0.6,0.4,1.9,0.3,2.3c-1.6-2.9,0,1.2-0.5,0.9l-1-1.9c-0.2-0.3-0.4-0.7-0.5-1   l-0.1-0.8l0.2-0.1l-0.3,0.1l-0.1,0.2l0,0.6c0,0.2,0.2,0.5,0.2,0.7l0.6,1.4l1.1,2.8c0.7,1.8,1.6,3.7,2.6,5.6c0.5,0.9,1,1.9,1.5,2.8   l1,1.9c0.7,1.2,1.4,2.4,2.1,3.6L121.5,112.3"/>
	<path id="Fill-4" class="st1" d="M139.8,27.9l-0.5,0.5c-4.2-4.6-9.2-8.6-14.9-11.8c-5.7-3.3-11.9-5.8-18.7-7.4   c-1.7-0.4-3.4-0.7-5.2-0.9c-1.7-0.2-3.4-0.4-5.1-0.6C92,7.3,88.5,7.1,85,7c-7.1-0.1-14.3,0.3-21.5,1.6C56.2,9.9,48.9,12,42,15.5   c-3.4,1.7-24,9.8-30.4,33.7c-1.3,3.7-1,8.7-1.4,12.6c-0.4,3.9-0.4,8,0.5,12c-0.9-0.4-1.9-0.7-2.8-1.2c1.1,4.6,3.2,9.2,6.2,13.1   c0.8,1,1.6,1.9,2.4,2.7c0.9,0.8,1.8,1.7,2.8,2.4c2,1.5,4.1,2.8,6.3,3.7c4.4,1.9,8.9,2.5,13,2.7c4.2,0.2,8.1-0.2,11.7-0.7   c-1.9-0.1-3.8-0.3-5.7-0.5c2.6-0.6,7.2-1.2,12-1.8c4.8-0.6,10.1-1.1,14.1-1.1L70.1,94c-10.9,0.9,0.7,0.2-3.6,2.2l-1.9,0.4l1.1,0.3   l1.9-0.4c-0.2,0.4,0,0.9-1.8,1.1l2.5-0.1c5.4,1.6,5.3,3.2,4.7,5.2c0.6-0.1,0.6-0.7,1.1-1.1c0.5-0.4,1.6-0.8,4.2-0.3l-0.7,0.6   c1-0.1,1.9-0.3,2.8-0.3l0.7-0.1l0.8,0l1.6,0c0.8,0.4,1.7,0.9,2.5,1.3c2.2,0,3.6-0.1,5.7,0.8l1-1.1c4.7,1.7,9.9,3.6,15.1,6.3   c5.1,2.7,10.1,6,14,9.7c2.7,0.4,6,5.4,11.2,8.6l-1-2.8c-1.8-2.9-5.8-6.7-10.6-10.3c-4.7-3.7-10.2-7.1-14.6-9.8l0.7-0.5   c2.1,0.8,3.8,1.1,6,2.9l1.3-0.7c-0.7-3.2-5.2-5.6-9.9-7c-4.7-1.4-9.5-1.6-11.3-2.5c-3.8-1.7-2.4-2-0.4-2.1c2,0,4.5,0.5,2.5-0.1   c2.4,0.3,3.2,0.1,3-0.4c-0.2-0.5-1.4-1.4-3.1-2.3c-1.7-0.9-3.8-1.9-5.8-2.7c-2-0.8-3.8-1.5-4.8-2.1c-0.3-0.1-0.7-0.3-1.1-0.4   c-0.4-0.1-0.8-0.3-1.2-0.4c-0.9-0.3-1.8-0.5-2.8-0.7c-1.9-0.4-4-0.6-6.2-0.8c-4.3-0.3-8.9-0.1-13.4,0.2c-4.5,0.3-8.9,0.6-12.9,0.7   c-4,0.1-7.6-0.2-10.3-0.7c-2.4-0.1-4.7-0.6-6.7-1.5c-1-0.5-1.9-1-2.8-1.7c-0.2-0.2-0.4-0.4-0.6-0.5c-0.2-0.2-0.4-0.4-0.6-0.6   c-0.4-0.4-0.8-0.9-1.2-1.3c-1.5-1.9-2.6-4.1-3.1-6.6c-0.6-2.5-0.7-5.2-0.4-7.9c0.6-5.6,0.3-12.4,3-17.4   C29.4,33.9,45,26.3,47.3,24.7c4.7-3.2,10.1-5,13.6-3.8c5.8-1.2,11.9-1.7,18-1.8l-0.3,0.8c4.4-0.2,8.9-0.2,13.5,0   c2.3,0.1,4.6,0.2,6.9,0.4l1.6,0.1c0.5,0.1,1,0.1,1.5,0.2c1,0.1,2.1,0.3,3.1,0.5c8.3,1.7,16.4,5.6,22.2,10.6   c2.5,2.2,4.3,3.5,5.5,4.8c1.2,1.2,1.9,2.3,1.7,4.1c1.2,2.9,2.2,5.8,2.8,8.8c0.1,0.8,0.2,1.5,0.3,2.3c0.1,0.8,0.1,1.5,0.1,2.4   c0,1.7-0.1,3.4-0.3,5.2c-0.9,7-3.9,14.2-8.1,19.5c0.6,0.4-0.1,2.4,1.8,0.6c1.9-3.1,4.1-6.2,6-8.6c1.8-2.4,3.4-4.2,4.3-4   c-0.4,0.9-0.8,1.7-1.2,2.6c1.1-1.3,2.2-2.8,3.2-4.3c0.2-1.1,0.3-2.2,0.3-3.3c0.6-0.7,1.1-1,1.4-1c0.9-2.8,1.8-5.4,2.4-8.3   c0.6-2.9,0.9-6,0.5-9.4C146,38.7,143.7,34,139.8,27.9"/>
	<path id="Fill-5" class="st2" d="M46.1,50c-0.2,0.2-0.3,0.4-0.5,0.6c-0.2,0.1-0.4,0.2-0.7,0.2c-0.2,0-0.5-0.1-0.8-0.2   c-0.3-0.1-0.6-0.3-0.9-0.5c-0.3-0.2-0.7-0.4-1.2-0.5c-0.4-0.1-0.9-0.2-1.5-0.2c-1,0-1.7,0.2-2.2,0.6c-0.5,0.4-0.7,1-0.7,1.7   c0,0.5,0.1,0.8,0.4,1.1c0.3,0.3,0.7,0.6,1.1,0.8c0.5,0.2,1,0.4,1.6,0.6c0.6,0.2,1.2,0.4,1.8,0.6c0.6,0.2,1.2,0.5,1.8,0.8   c0.6,0.3,1.1,0.7,1.6,1.1c0.5,0.5,0.8,1,1.1,1.7c0.3,0.7,0.4,1.5,0.4,2.4c0,1-0.2,2-0.5,2.9c-0.4,0.9-0.9,1.7-1.6,2.4   c-0.7,0.7-1.5,1.2-2.5,1.6c-1,0.4-2.1,0.6-3.4,0.6c-0.7,0-1.4-0.1-2.1-0.2c-0.7-0.1-1.4-0.3-2.1-0.6c-0.7-0.3-1.3-0.6-1.9-0.9   c-0.6-0.4-1.1-0.8-1.6-1.2l1.5-2.4c0.1-0.2,0.3-0.3,0.5-0.4c0.2-0.1,0.4-0.2,0.7-0.2c0.3,0,0.6,0.1,0.9,0.3   c0.3,0.2,0.7,0.4,1.1,0.6c0.4,0.2,0.9,0.5,1.4,0.6c0.5,0.2,1.1,0.3,1.8,0.3c0.9,0,1.7-0.2,2.2-0.6c0.5-0.4,0.8-1.1,0.8-2   c0-0.5-0.1-1-0.4-1.3c-0.3-0.3-0.7-0.6-1.1-0.8c-0.5-0.2-1-0.4-1.6-0.6c-0.6-0.2-1.2-0.3-1.8-0.5c-0.6-0.2-1.2-0.4-1.8-0.7   c-0.6-0.3-1.1-0.7-1.6-1.2c-0.5-0.5-0.8-1.1-1.1-1.8c-0.3-0.7-0.4-1.6-0.4-2.6c0-0.8,0.2-1.7,0.5-2.5c0.3-0.8,0.8-1.5,1.5-2.1   c0.7-0.6,1.5-1.1,2.4-1.5c1-0.4,2.1-0.6,3.3-0.6c0.7,0,1.4,0.1,2,0.2c0.7,0.1,1.3,0.3,1.9,0.5c0.6,0.2,1.1,0.5,1.6,0.8   c0.5,0.3,1,0.6,1.4,1L46.1,50"/>
	<path id="Fill-6" class="st2" d="M55.5,60.4v7.5h-5.2V45.4h7.9c1.6,0,2.9,0.2,4.1,0.6c1.1,0.4,2.1,0.9,2.8,1.6   c0.7,0.7,1.3,1.4,1.6,2.3c0.3,0.9,0.5,1.9,0.5,2.9c0,1.1-0.2,2.2-0.5,3.1c-0.4,0.9-0.9,1.7-1.7,2.4c-0.7,0.7-1.7,1.2-2.8,1.6   c-1.1,0.4-2.5,0.6-4,0.6H55.5L55.5,60.4z M55.5,56.4h2.7c1.4,0,2.3-0.3,2.9-1c0.6-0.6,0.9-1.6,0.9-2.7c0-0.5-0.1-1-0.2-1.4   c-0.2-0.4-0.4-0.8-0.7-1.1c-0.3-0.3-0.7-0.5-1.2-0.7c-0.5-0.2-1-0.2-1.7-0.2h-2.7V56.4L55.5,56.4z"/>
	<polyline id="Fill-7" class="st2" points="83.8,45.4 83.8,49.4 74.6,49.4 74.6,54.6 81.6,54.6 81.6,58.5 74.6,58.5 74.6,63.9    83.8,63.9 83.8,67.9 69.3,67.9 69.3,45.4 83.8,45.4  "/>
	<path id="Fill-8" class="st2" d="M107.6,67.9h-4c-0.5,0-0.8-0.1-1.1-0.3c-0.3-0.2-0.5-0.5-0.6-0.8l-1.3-3.9H92l-1.3,3.9   c-0.1,0.3-0.3,0.5-0.6,0.8c-0.3,0.2-0.7,0.3-1.1,0.3h-4.1l8.7-22.5h5.3L107.6,67.9L107.6,67.9z M93.2,59.3h6.1l-2.1-6.2   c-0.1-0.4-0.3-0.9-0.5-1.4c-0.2-0.5-0.4-1.1-0.5-1.7c-0.2,0.6-0.3,1.2-0.5,1.7c-0.2,0.5-0.3,1-0.5,1.4L93.2,59.3L93.2,59.3z"/>
	<path id="Fill-9" class="st2" d="M114.3,54.5h0.8c0.8,0,1.3-0.2,1.7-0.7l5.1-7.4c0.3-0.4,0.6-0.7,0.9-0.8c0.4-0.1,0.8-0.2,1.3-0.2   h4.5l-6.7,9.1c-0.2,0.3-0.5,0.6-0.7,0.8c-0.3,0.2-0.5,0.4-0.8,0.5c0.4,0.1,0.7,0.3,1.1,0.6c0.3,0.3,0.6,0.6,0.9,1l6.8,10.4h-4.7   c-0.3,0-0.6,0-0.8-0.1c-0.2,0-0.4-0.1-0.5-0.2c-0.2-0.1-0.3-0.2-0.4-0.3c-0.1-0.1-0.2-0.3-0.3-0.4l-5.1-7.8   c-0.2-0.3-0.4-0.5-0.7-0.6c-0.3-0.1-0.7-0.2-1.1-0.2h-1.3v9.6h-5.2V45.4h5.2V54.5"/>
</g>
</svg>