<svg version="1.1" id="Hor-Full-Color" xmlns="http://www.w3.org/2000/svg" x="0" y="0" viewBox="0 0 184.9 35.5" xml:space="preserve"><path fill="#638C1C" d="M17.7 17.1l-17 6.7 17 7.6 17.1-7.6z"/><path fill="#E65300" d="M17.7 8.9l-17 6.7 17 7.6 17.1-7.6z"/><path fill="#007CBA" d="M17.7.7L.7 7.4l17 7.6 17.1-7.6z"/><path fill="#B2D235" d="M17.7 30.4l-17-6.6v4.4l17 6.6 17.1-6.6v-4.4z"/><path fill="#FF8300" d="M17.7 22.2l-17-6.6V20l17 6.6L34.8 20v-4.4z"/><path fill="#009ADE" d="M17.7 14L.7 7.4v4.3l17 6.7 17.1-6.7V7.4z"/><path d="M53.3 22.1c0-.7-.3-1.3-.9-1.6-.6-.4-1.6-.7-3-1-1.4-.3-2.5-.7-3.4-1.1-2-1-3-2.4-3-4.2 0-1.6.7-2.9 2-3.9s3-1.6 5-1.6c2.2 0 3.9.5 5.2 1.6 1.3 1.1 2 2.4 2 4.1h-4c0-.8-.3-1.4-.9-1.9-.6-.5-1.3-.8-2.3-.8-.9 0-1.6.2-2.2.6-.6.4-.8 1-.8 1.6 0 .6.3 1.1.8 1.4s1.6.7 3.2 1c1.6.3 2.8.8 3.7 1.2.9.5 1.6 1.1 2 1.7.4.7.7 1.5.7 2.5 0 1.6-.7 2.9-2 3.9s-3.1 1.5-5.3 1.5c-1.5 0-2.8-.3-3.9-.8-1.2-.5-2.1-1.3-2.7-2.2s-1-1.9-1-3h3.9c.1 1 .4 1.7 1.1 2.2.7.5 1.5.8 2.6.8s1.9-.2 2.4-.6c.5-.2.8-.8.8-1.4zm18.4 3.1c-1.2 1.4-2.9 2.1-5.1 2.1-2 0-3.4-.6-4.4-1.7-1-1.1-1.5-2.8-1.5-5V9h4v11.6c0 2.3.9 3.4 2.8 3.4 2 0 3.3-.7 4-2.1V9h4v18h-3.8v-1.8zm7.3-7.4c0-2.8.7-5 2-6.7 1.3-1.7 3.1-2.5 5.2-2.5s3.7.7 4.8 2.1l.3-1.7h3.6v17.5c0 2.4-.7 4.2-2.2 5.6-1.5 1.4-3.5 2-6 2-1.3 0-2.6-.3-3.9-.8-1.3-.5-2.2-1.3-2.9-2.2l1.9-2.4c1.2 1.5 2.8 2.2 4.6 2.2 1.3 0 2.4-.4 3.2-1.1.8-.7 1.2-1.8 1.2-3.2v-1.2c-1.2 1.3-2.7 1.9-4.7 1.9-2.1 0-3.8-.8-5.2-2.5-1.2-1.7-1.9-4-1.9-7zm4.1.4c0 1.8.4 3.2 1.1 4.3.7 1 1.8 1.6 3.1 1.6 1.6 0 2.8-.7 3.6-2.1v-8c-.8-1.4-2-2-3.6-2-1.3 0-2.4.5-3.1 1.6-.8 1-1.1 2.5-1.1 4.6zm26.7 8.8c-.2-.3-.3-.9-.5-1.7-1.3 1.3-2.9 2-4.7 2-1.8 0-3.3-.5-4.4-1.5-1.1-1-1.7-2.3-1.7-3.8 0-1.9.7-3.4 2.1-4.4s3.5-1.5 6.1-1.5h2.5v-1.2c0-.9-.3-1.7-.8-2.2-.5-.6-1.3-.8-2.4-.8-.9 0-1.7.2-2.3.7-.6.5-.9 1-.9 1.8h-4c0-1 .3-1.9 1-2.8.7-.9 1.5-1.5 2.7-2 1.1-.5 2.4-.7 3.8-.7 2.1 0 3.8.5 5 1.6s1.9 2.6 1.9 4.5v8.1c0 1.6.2 2.9.7 3.9h-4.1zm-4.4-2.9c.8 0 1.6-.2 2.3-.6.7-.4 1.2-.9 1.6-1.6v-3.4h-2.2c-1.5 0-2.6.3-3.4.8s-1.1 1.3-1.1 2.2c0 .8.3 1.4.8 1.9.4.4 1.1.7 2 .7zm21.5-11.4c-.5-.1-1.1-.1-1.6-.1-1.9 0-3.1.7-3.7 2.1V27h-4V9h3.9l.1 2c1-1.6 2.3-2.3 4.1-2.3.6 0 1.1.1 1.4.2l-.2 3.8zm9.8 12.9c1.4 0 2.6-.4 3.5-1.2.9-.8 1.4-1.8 1.5-3h1.9c-.1 1.1-.4 2.1-1 3-.6.9-1.5 1.6-2.5 2.1s-2.2.8-3.4.8c-2.4 0-4.2-.8-5.6-2.5-1.4-1.6-2.1-3.9-2.1-6.6v-.6c0-1.8.3-3.3.9-4.7s1.5-2.4 2.7-3.2c1.2-.7 2.5-1.1 4.1-1.1 2 0 3.6.6 4.9 1.8 1.3 1.2 2 2.7 2.1 4.6h-1.9c-.1-1.4-.6-2.5-1.5-3.4-.9-.9-2.1-1.3-3.5-1.3-1.8 0-3.2.6-4.2 1.9-1 1.3-1.5 3.1-1.5 5.5v.6c0 2.3.5 4.1 1.5 5.4.9 1.3 2.3 1.9 4.1 1.9zm19.2-14.9c-.4-.1-.9-.1-1.3-.1-1.2 0-2.3.3-3.2 1-.9.7-1.5 1.7-1.8 3V27h-2V9h1.9v2.9c1.1-2.1 2.7-3.2 5.1-3.2.6 0 1 .1 1.3.2v1.8zm5-1.7l.1 2.9c.7-1.1 1.5-1.9 2.5-2.4s2.1-.8 3.3-.8c2.8 0 4.6 1.2 5.4 3.5.6-1.1 1.5-2 2.6-2.6 1.1-.6 2.3-.9 3.6-.9 3.9 0 5.8 2.1 5.9 6.3v12h-2V15.1c0-1.6-.4-2.8-1-3.6-.7-.8-1.8-1.2-3.3-1.2-1.4 0-2.6.5-3.6 1.4-1 .9-1.5 2-1.6 3.3v12h-2V15c0-1.5-.4-2.7-1.1-3.5-.7-.8-1.8-1.1-3.3-1.1-1.3 0-2.3.4-3.2 1.1-.9.7-1.6 1.8-2 3.2V27h-2V9h1.7z" fill="#003764"/></svg>